<svg version="1.1" id="Layer_1" xmlns="http://www.w3.org/2000/svg" xmlns:xlink="http://www.w3.org/1999/xlink" x="0px" y="0px" viewBox="-108.1 -0.5 248.3 112.8" style="enable-background:new -108.1 -0.5 248.3 112.8;" xml:space="preserve">
 <style type="text/css">
  .st0{fill:#D0271D;}
 </style>
 <title>
  Artboard 1
 </title>
 <g>
  <path class="st0" d="M47.9,55.9c-0.1,17.8-14.5,32.2-32.3,32.3H3.2V74h12.4c10,0,18.1-8.1,18.1-18.1c0-10-8.1-18.1-18.1-18.1l0,0
		H3.2V23.6h12.4C33.4,23.7,47.9,38.1,47.9,55.9 M-20.9,23.6v26.2h-22.3l-8.2,14.2h44.7V23.6H-20.9z M140.1,43.8
		c0,24.5-19.9,44.3-44.3,44.3v24.1H57.5V93.5c-10.7,12.1-26.1,19-42.2,18.8h-36.2V88.2h-28.4l-14.2,24.1h-44.7L-42.5-0.5h58.2
		C31.7-0.4,47,6.4,57.9,18.3V-0.5h38.3C120.5-0.3,140.2,19.5,140.1,43.8 M15.6,98.1C32,98.1,46.9,88.8,54,74H72v24.1H82V74h14.2
		c16.6,0,30.1-13.4,30.2-30.1c0,0,0,0,0-0.1c-0.2-16.7-13.8-30.2-30.5-30.2H71.7v36.2H57.5c-3.1-20.7-20.9-36.1-41.9-36.2H-34
		l-49.3,84.4h11.7L-57.4,74h50.7v24.1H15.6z M95.8,23.6H81.6v14.2h14.2c3.3,0,6,2.6,6,6c0,0,0,0,0,0.1c-0.1,3.3-2.7,5.9-6,6H81.6
		v14.2h14.2C107,64.1,116,55,116,43.8l0,0C115.9,32.7,106.9,23.7,95.8,23.6">
  </path>
  <path class="st0" d="M115.7,105.2c0,3.1-2.5,5.7-5.7,5.7c-3.1,0-5.7-2.5-5.7-5.7s2.5-5.7,5.7-5.7l0,0c3.1,0,5.6,2.4,5.7,5.5
		C115.7,105.1,115.7,105.2,115.7,105.2 M117.1,105.2c0-3.9-3.2-7.1-7.1-7.1s-7.1,3.2-7.1,7.1s3.2,7.1,7.1,7.1
		S117.1,109.1,117.1,105.2">
  </path>
  <path class="st0" d="M110.4,102c0.8,0,1.4,0.6,1.4,1.4c0,0.8-0.6,1.4-1.4,1.4c0,0,0,0,0,0h-1.4V102H110.4z M112.1,101.7
		c-0.5-0.4-1.1-0.7-1.8-0.7h-2.8v8.5h1.1v-3.2h1.4l1.8,3.2h1.4l-2.1-3.5c0.4,0,0.7-0.4,1.1-0.7c0.3-0.4,0.4-0.9,0.4-1.4
		C112.8,103.1,112.7,102.2,112.1,101.7">
  </path>
 </g>
</svg>