<svg version="1.1" id="Layer_1" xmlns:x="ns_extend;" xmlns:i="ns_ai;" xmlns:graph="ns_graphs;" xmlns="http://www.w3.org/2000/svg" xmlns:xlink="http://www.w3.org/1999/xlink" x="0px" y="0px" viewBox="0 0 544.1 199.8" style="enable-background:new 0 0 544.1 199.8;" xml:space="preserve">
 <style type="text/css">
  .st0{display:none;}
	.st1{display:inline;}
	.st2{fill:none;stroke:#B2B2B2;stroke-width:0.25;stroke-miterlimit:10;}
	.st3{fill:none;stroke:#B2B2B2;stroke-width:0.25;stroke-miterlimit:10;stroke-dasharray:0.9969,0.9969;}
	.st4{display:inline;fill:none;stroke:#B2B2B2;stroke-width:0.25;stroke-miterlimit:10;stroke-dasharray:1,1;}
	.st5{fill:none;stroke:#B2B2B2;stroke-width:0.25;stroke-miterlimit:10;stroke-dasharray:0.993,0.993;}
	.st6{fill:none;stroke:#B2B2B2;stroke-width:0.25;stroke-miterlimit:10;stroke-dasharray:1.0017,1.0017;}
	.st7{fill:none;stroke:#B2B2B2;stroke-width:0.25;stroke-miterlimit:10;stroke-dasharray:0.9926,0.9926;}
	.st8{display:inline;fill:none;stroke:#E71D73;stroke-width:0.25;stroke-miterlimit:10;}
	.st9{fill:#9D9D9C;}
	.st10{fill:#424241;}
	.st11{display:inline;fill:#00ABCD;}
	.st12{display:inline;fill:#4D4949;}
	.st13{fill:#464547;}
	.st14{fill:#00ABCD;}
 </style>
 <metadata>
  <sfw xmlns="ns_sfw;">
   <slices>
   </slices>
   <sliceSourceBounds bottomLeftOrigin="true" height="547.7" width="544.1" x="22" y="-345">
   </sliceSourceBounds>
  </sfw>
 </metadata>
 <g id="Grid_x2F_Specs" class="st0">
  <g class="st1">
   <g>
    <line class="st2" x1="222.5" y1="249.2" x2="223" y2="249.2">
    </line>
    <line class="st3" x1="224" y1="249.2" x2="524.5" y2="249.2">
    </line>
    <line class="st2" x1="525" y1="249.2" x2="525.5" y2="249.2">
    </line>
   </g>
  </g>
  <line class="st4" x1="222.5" y1="318.4" x2="525.5" y2="318.4">
  </line>
  <line class="st4" x1="222.5" y1="283.9" x2="525.5" y2="283.9">
  </line>
  <g class="st1">
   <g>
    <line class="st2" x1="273.9" y1="223.9" x2="273.9" y2="224.4">
    </line>
    <line class="st5" x1="273.9" y1="225.4" x2="273.9" y2="342.1">
    </line>
    <line class="st2" x1="273.9" y1="342.6" x2="273.9" y2="343.1">
    </line>
   </g>
  </g>
  <g class="st1">
   <g>
    <line class="st2" x1="248.9" y1="223.9" x2="248.9" y2="224.4">
    </line>
    <line class="st5" x1="248.9" y1="225.4" x2="248.9" y2="342.1">
    </line>
    <line class="st2" x1="248.9" y1="342.6" x2="248.9" y2="343.1">
    </line>
   </g>
  </g>
  <line class="st4" x1="499.2" y1="223.9" x2="499.2" y2="343.1">
  </line>
  <g class="st1">
   <g>
    <line class="st2" x1="286.4" y1="223.9" x2="286.4" y2="224.4">
    </line>
    <line class="st5" x1="286.4" y1="225.4" x2="286.4" y2="342.1">
    </line>
    <line class="st2" x1="286.4" y1="342.6" x2="286.4" y2="343.1">
    </line>
   </g>
  </g>
  <line class="st4" x1="461.8" y1="223.9" x2="461.8" y2="343.1">
  </line>
  <line class="st4" x1="474.2" y1="223.9" x2="474.2" y2="343.1">
  </line>
  <g class="st1">
   <g>
    <polyline class="st2" points="524.2,342.6 524.2,343.1 523.7,343.1 			">
    </polyline>
    <line class="st6" x1="522.7" y1="343.1" x2="224.7" y2="343.1">
    </line>
    <polyline class="st2" points="224.2,343.1 223.7,343.1 223.7,342.6 			">
    </polyline>
    <line class="st7" x1="223.7" y1="341.6" x2="223.7" y2="225">
    </line>
    <polyline class="st2" points="223.7,224.5 223.7,224 224.2,224 			">
    </polyline>
    <line class="st6" x1="225.2" y1="224" x2="523.2" y2="224">
    </line>
    <polyline class="st2" points="523.7,224 524.2,224 524.2,224.5 			">
    </polyline>
    <line class="st7" x1="524.2" y1="225.5" x2="524.2" y2="342.1">
    </line>
   </g>
  </g>
  <line class="st8" x1="248.7" y1="357.9" x2="273.9" y2="357.9">
  </line>
  <line class="st8" x1="248.9" y1="288.8" x2="248.9" y2="357.9">
  </line>
  <line class="st8" x1="273.9" y1="312.1" x2="273.9" y2="357.9">
  </line>
  <g class="st1">
   <path d="M259.6,363.7l1.3-1.8l-1.2-1.7h0.5l0.6,0.9c0.1,0.2,0.2,0.3,0.3,0.4c0.1-0.1,0.2-0.3,0.3-0.4l0.7-0.9h0.5l-1.2,1.6
			l1.3,1.8h-0.6l-0.9-1.2c0-0.1-0.1-0.1-0.2-0.2c-0.1,0.1-0.1,0.2-0.2,0.3l-0.9,1.2L259.6,363.7L259.6,363.7z">
   </path>
  </g>
  <g class="st1">
   <path d="M350.8,542h-0.4v-2.7c-0.1,0.1-0.2,0.2-0.4,0.3c-0.2,0.1-0.3,0.2-0.4,0.2v-0.4c0.2-0.1,0.4-0.2,0.6-0.4s0.3-0.3,0.4-0.5
			h0.3v3.5L350.8,542L350.8,542z">
   </path>
   <path d="M354.1,539.4h-0.4c0-0.2-0.1-0.3-0.2-0.4c-0.1-0.1-0.3-0.2-0.4-0.2s-0.3,0-0.4,0.1s-0.2,0.2-0.3,0.4
			c-0.1,0.2-0.1,0.5-0.1,0.8c0.1-0.2,0.2-0.3,0.4-0.3c0.1-0.1,0.3-0.1,0.5-0.1c0.3,0,0.5,0.1,0.7,0.3s0.3,0.5,0.3,0.8
			c0,0.2,0,0.4-0.1,0.6s-0.2,0.3-0.4,0.4s-0.4,0.1-0.6,0.1c-0.4,0-0.6-0.1-0.9-0.4c-0.2-0.3-0.3-0.7-0.3-1.3c0-0.7,0.1-1.2,0.4-1.5
			c0.2-0.3,0.5-0.4,0.9-0.4c0.3,0,0.5,0.1,0.7,0.2C354,538.9,354.1,539.1,354.1,539.4z M352.3,540.9c0,0.1,0,0.3,0.1,0.4
			s0.1,0.2,0.3,0.3s0.2,0.1,0.4,0.1c0.2,0,0.3-0.1,0.5-0.2c0.1-0.1,0.2-0.3,0.2-0.6c0-0.2-0.1-0.4-0.2-0.6c-0.1-0.1-0.3-0.2-0.5-0.2
			s-0.4,0.1-0.5,0.2C352.4,540.5,352.3,540.6,352.3,540.9z">
   </path>
   <path d="M354.7,542v-2.5h0.4v0.4c0.1-0.1,0.2-0.2,0.3-0.3c0.1-0.1,0.3-0.1,0.4-0.1c0.2,0,0.3,0,0.5,0.1c0.1,0.1,0.2,0.2,0.3,0.3
			c0.2-0.3,0.5-0.4,0.8-0.4c0.2,0,0.4,0.1,0.6,0.2c0.1,0.1,0.2,0.4,0.2,0.6v1.7h-0.4v-1.6c0-0.2,0-0.3,0-0.4c0-0.1-0.1-0.1-0.2-0.2
			s-0.2-0.1-0.3-0.1c-0.2,0-0.3,0.1-0.4,0.2c-0.1,0.1-0.2,0.3-0.2,0.6v1.5h-0.4v-1.6c0-0.2,0-0.3-0.1-0.4c-0.1-0.1-0.2-0.1-0.3-0.1
			c-0.1,0-0.2,0-0.3,0.1s-0.2,0.2-0.2,0.3s-0.1,0.3-0.1,0.5v1.3L354.7,542L354.7,542z">
   </path>
   <path d="M358.7,542v-2.5h0.4v0.4c0.1-0.1,0.2-0.2,0.3-0.3c0.1-0.1,0.3-0.1,0.4-0.1c0.2,0,0.3,0,0.5,0.1c0.1,0.1,0.2,0.2,0.3,0.3
			c0.2-0.3,0.5-0.4,0.8-0.4c0.2,0,0.4,0.1,0.6,0.2c0.1,0.1,0.2,0.4,0.2,0.6v1.7h-0.4v-1.6c0-0.2,0-0.3,0-0.4c0-0.1-0.1-0.1-0.2-0.2
			s-0.2-0.1-0.3-0.1c-0.2,0-0.3,0.1-0.4,0.2c-0.1,0.1-0.2,0.3-0.2,0.6v1.5h-0.4v-1.6c0-0.2,0-0.3-0.1-0.4c-0.1-0.1-0.2-0.1-0.3-0.1
			c-0.1,0-0.2,0-0.3,0.1s-0.2,0.2-0.2,0.3s-0.1,0.3-0.1,0.5v1.3L358.7,542L358.7,542z">
   </path>
   <path d="M364,540.7c0-0.5,0.1-0.8,0.4-1c0.2-0.2,0.5-0.3,0.8-0.3s0.6,0.1,0.8,0.3c0.2,0.2,0.3,0.5,0.3,0.9c0,0.3,0,0.6-0.1,0.8
			s-0.2,0.3-0.4,0.4c-0.2,0.1-0.4,0.2-0.6,0.2c-0.4,0-0.6-0.1-0.9-0.3C364.1,541.5,364,541.2,364,540.7z M364.4,540.7
			c0,0.3,0.1,0.6,0.2,0.7c0.1,0.2,0.3,0.2,0.5,0.2s0.4-0.1,0.5-0.2c0.1-0.2,0.2-0.4,0.2-0.7s-0.1-0.5-0.2-0.7s-0.3-0.2-0.5-0.2
			s-0.4,0.1-0.5,0.2C364.5,540.2,364.4,540.4,364.4,540.7z">
   </path>
   <path d="M366.8,542v-2.5h0.4v0.4c0.1-0.2,0.2-0.3,0.3-0.4c0.1-0.1,0.2-0.1,0.3-0.1c0.1,0,0.3,0,0.4,0.1l-0.1,0.4
			c-0.1-0.1-0.2-0.1-0.3-0.1c-0.1,0-0.2,0-0.3,0.1c-0.1,0.1-0.1,0.1-0.2,0.2c0,0.2-0.1,0.3-0.1,0.5v1.3L366.8,542L366.8,542z">
   </path>
   <path d="M371.3,542h-0.4v-2.7c-0.1,0.1-0.2,0.2-0.4,0.3c-0.2,0.1-0.3,0.2-0.4,0.2v-0.4c0.2-0.1,0.4-0.2,0.6-0.4s0.3-0.3,0.4-0.5
			h0.3v3.5L371.3,542L371.3,542z">
   </path>
   <path d="M372.4,540.3c0-0.4,0-0.7,0.1-1c0.1-0.2,0.2-0.4,0.4-0.6s0.4-0.2,0.6-0.2s0.4,0,0.5,0.1s0.3,0.2,0.3,0.3
			c0.1,0.1,0.2,0.3,0.2,0.5c0.1,0.2,0.1,0.5,0.1,0.8c0,0.4,0,0.7-0.1,1s-0.2,0.4-0.4,0.6c-0.2,0.1-0.4,0.2-0.6,0.2
			c-0.3,0-0.6-0.1-0.8-0.4C372.5,541.4,372.4,540.9,372.4,540.3z M372.8,540.3c0,0.6,0.1,1,0.2,1.1c0.1,0.2,0.3,0.3,0.5,0.3
			s0.4-0.1,0.5-0.3s0.2-0.6,0.2-1.1c0-0.6-0.1-1-0.2-1.1c-0.1-0.2-0.3-0.3-0.5-0.3s-0.4,0.1-0.5,0.2
			C372.9,539.3,372.8,539.7,372.8,540.3z">
   </path>
   <path d="M375.1,540.3c0-0.4,0-0.7,0.1-1c0.1-0.2,0.2-0.4,0.4-0.6s0.4-0.2,0.6-0.2s0.4,0,0.5,0.1s0.3,0.2,0.3,0.3
			c0.1,0.1,0.2,0.3,0.2,0.5c0.1,0.2,0.1,0.5,0.1,0.8c0,0.4,0,0.7-0.1,1s-0.2,0.4-0.4,0.6c-0.2,0.1-0.4,0.2-0.6,0.2
			c-0.3,0-0.6-0.1-0.8-0.4C375.2,541.4,375.1,540.9,375.1,540.3z M375.5,540.3c0,0.6,0.1,1,0.2,1.1c0.1,0.2,0.3,0.3,0.5,0.3
			s0.4-0.1,0.5-0.3s0.2-0.6,0.2-1.1c0-0.6-0.1-1-0.2-1.1c-0.1-0.2-0.3-0.3-0.5-0.3s-0.4,0.1-0.5,0.2
			C375.6,539.3,375.5,539.7,375.5,540.3z">
   </path>
   <path d="M379.3,543v-3.5h0.4v0.3c0.1-0.1,0.2-0.2,0.3-0.3c0.1-0.1,0.3-0.1,0.4-0.1c0.2,0,0.4,0.1,0.6,0.2c0.2,0.1,0.3,0.3,0.4,0.5
			s0.1,0.4,0.1,0.7s0,0.5-0.1,0.7s-0.2,0.4-0.4,0.5c-0.2,0.1-0.4,0.2-0.6,0.2c-0.1,0-0.3,0-0.4-0.1s-0.2-0.1-0.3-0.2v1.2h-0.4V543z
			 M379.7,540.8c0,0.3,0.1,0.6,0.2,0.7c0.1,0.2,0.3,0.2,0.5,0.2s0.4-0.1,0.5-0.2c0.1-0.2,0.2-0.4,0.2-0.7s-0.1-0.6-0.2-0.7
			c-0.1-0.2-0.3-0.2-0.5-0.2s-0.3,0.1-0.5,0.3C379.7,540.2,379.7,540.4,379.7,540.8z">
   </path>
   <path d="M382,539v-0.5h0.4v0.5H382z M382,542v-2.5h0.4v2.5H382z">
   </path>
   <path d="M382.8,542l0.9-1.3l-0.9-1.2h0.5l0.4,0.6c0.1,0.1,0.1,0.2,0.2,0.3c0.1-0.1,0.1-0.2,0.2-0.3l0.4-0.6h0.5l-0.9,1.2l0.9,1.3
			h-0.5l-0.5-0.8V541l-0.7,1H382.8z">
   </path>
   <path d="M387.2,541.2l0.4,0.1c-0.1,0.3-0.2,0.5-0.4,0.6c-0.2,0.1-0.4,0.2-0.7,0.2c-0.4,0-0.7-0.1-0.9-0.3c-0.2-0.2-0.3-0.5-0.3-1
			c0-0.4,0.1-0.8,0.3-1s0.5-0.4,0.8-0.4s0.6,0.1,0.8,0.3s0.3,0.6,0.3,1v0.1h-1.9c0,0.3,0.1,0.5,0.2,0.6s0.3,0.2,0.5,0.2
			s0.3,0,0.4-0.1C387.1,541.5,387.2,541.4,387.2,541.2z M385.8,540.5h1.4c0-0.2-0.1-0.4-0.2-0.5c-0.1-0.2-0.3-0.2-0.5-0.2
			s-0.4,0.1-0.5,0.2C385.9,540.1,385.8,540.3,385.8,540.5z">
   </path>
   <path d="M388.2,542v-3.5h0.4v3.5H388.2z">
   </path>
   <path d="M389.1,541.2l0.4-0.1c0,0.2,0.1,0.3,0.2,0.4c0.1,0.1,0.3,0.1,0.5,0.1s0.3,0,0.4-0.1s0.1-0.2,0.1-0.3s0-0.2-0.1-0.2
			s-0.2-0.1-0.4-0.1c-0.3-0.1-0.5-0.1-0.7-0.2s-0.2-0.1-0.3-0.2c-0.1-0.1-0.1-0.2-0.1-0.3s0-0.2,0.1-0.3s0.1-0.2,0.2-0.2
			s0.2-0.1,0.3-0.1c0.1,0,0.2-0.1,0.4-0.1c0.2,0,0.4,0,0.5,0.1s0.3,0.1,0.3,0.2c0.1,0.1,0.1,0.2,0.1,0.4l-0.4,0.1
			c0-0.1-0.1-0.2-0.2-0.3s-0.2-0.1-0.4-0.1c-0.2,0-0.3,0-0.4,0.1s-0.1,0.1-0.1,0.2c0,0.1,0,0.1,0.1,0.1c0,0,0.1,0.1,0.2,0.1
			c0,0,0.2,0.1,0.4,0.1c0.3,0.1,0.5,0.1,0.6,0.2c0.1,0.1,0.2,0.1,0.3,0.2c0.1,0.1,0.1,0.2,0.1,0.4c0,0.1,0,0.3-0.1,0.4
			c-0.1,0.1-0.2,0.2-0.4,0.3c-0.2,0.1-0.3,0.1-0.5,0.1c-0.3,0-0.6-0.1-0.7-0.2C389.3,541.7,389.2,541.5,389.1,541.2z">
   </path>
  </g>
  <g class="st1">
   <path class="st9" d="M355.8,535v-4.3h0.8l0.6,3.3l0.6-3.3h0.8v4.3H358v-3.4l-0.6,3.4h-0.5l-0.6-3.4v3.4H355.8z">
   </path>
   <path class="st9" d="M359.5,535v-4.3h0.6v4.3H359.5z">
   </path>
   <path class="st9" d="M360.9,535v-4.3h0.5l1.1,2.6v-2.6h0.6v4.3h-0.4l-1.1-2.8v2.8H360.9z">
   </path>
   <path class="st9" d="M363.7,535v-4.3h0.6v4.3H363.7z">
   </path>
   <path class="st9" d="M365.1,535v-4.3h0.8l0.6,3.3l0.6-3.3h0.8v4.3h-0.6v-3.4l-0.6,3.4h-0.5l-0.6-3.4v3.4H365.1z">
   </path>
   <path class="st9" d="M370.4,534.9c-0.1,0-0.3,0.1-0.5,0.1s-0.3,0-0.5-0.1c-0.1,0-0.3-0.1-0.3-0.2c-0.1-0.1-0.2-0.2-0.2-0.3
			c-0.1-0.1-0.1-0.3-0.1-0.4c0-0.2,0-0.3,0-0.5v-2.7h0.6v2.7c0,0.1,0,0.2,0,0.3s0,0.2,0,0.3s0.1,0.2,0.1,0.2c0,0.1,0.1,0.1,0.2,0.2
			c0.1,0,0.2,0.1,0.3,0.1c0.1,0,0.2,0,0.3-0.1c0.1,0,0.1-0.1,0.2-0.2c0-0.1,0.1-0.1,0.1-0.2c0-0.1,0-0.2,0-0.3s0-0.2,0-0.3v-2.7h0.6
			v2.7c0,0.2,0,0.4,0,0.5c0,0.2-0.1,0.3-0.1,0.4c-0.1,0.1-0.1,0.2-0.2,0.3C370.7,534.8,370.6,534.9,370.4,534.9z">
   </path>
   <path class="st9" d="M371.8,535v-4.3h0.8l0.6,3.3l0.6-3.3h0.8v4.3H374v-3.4l-0.6,3.4H373l-0.6-3.4v3.4H371.8z">
   </path>
   <path class="st9" d="M377.7,535c-0.4,0-0.7-0.1-0.9-0.3c-0.2-0.2-0.3-0.5-0.3-0.9l0.6-0.2c0,0.6,0.2,0.9,0.6,0.9
			c0.3,0,0.5-0.2,0.5-0.5c0-0.1,0-0.2,0-0.3s-0.1-0.1-0.1-0.2c-0.1-0.1-0.1-0.1-0.1-0.2c0,0-0.1-0.1-0.2-0.1l-0.8-0.6
			c-0.1-0.1-0.2-0.2-0.3-0.4s-0.1-0.4-0.1-0.6c0-0.3,0.1-0.6,0.3-0.7c0.2-0.2,0.5-0.3,0.8-0.3s0.6,0.1,0.8,0.3
			c0.2,0.2,0.3,0.4,0.4,0.7v0.1l-0.6,0.2v-0.1c0-0.2-0.1-0.3-0.2-0.5c-0.1-0.1-0.2-0.2-0.4-0.2c-0.1,0-0.3,0-0.3,0.1
			c-0.1,0.1-0.1,0.2-0.1,0.3c0,0.2,0.1,0.4,0.3,0.6l0.8,0.6c0.4,0.3,0.6,0.7,0.6,1.2c0,0.3-0.1,0.6-0.3,0.7S378,535,377.7,535z">
   </path>
   <path class="st9" d="M379.3,535v-4.3h0.6v4.3H379.3z">
   </path>
   <path class="st9" d="M380.5,535v-0.5l1.4-3.3h-1.2v-0.5h1.8v0.5l-1.4,3.3h1.4v0.5H380.5z">
   </path>
   <path class="st9" d="M383.1,535v-4.3h1.7v0.5h-1.1v1.4h0.8v0.5h-0.8v1.5h1.1v0.5h-1.7V535z">
   </path>
  </g>
  <line class="st8" x1="223.7" y1="236.1" x2="248.9" y2="236.1">
  </line>
  <line class="st8" x1="223.7" y1="231.8" x2="223.7" y2="240.4">
  </line>
  <line class="st8" x1="248.9" y1="231.8" x2="248.9" y2="240.4">
  </line>
  <line class="st8" x1="511.9" y1="249.3" x2="511.9" y2="224">
  </line>
  <line class="st8" x1="507.5" y1="249.2" x2="516.2" y2="249.2">
  </line>
  <line class="st8" x1="507.5" y1="224" x2="516.2" y2="224">
  </line>
  <line class="st8" x1="273.9" y1="236.1" x2="286.4" y2="236.1">
  </line>
  <line class="st8" x1="273.9" y1="231.8" x2="273.9" y2="240.4">
  </line>
  <line class="st8" x1="286.4" y1="231.8" x2="286.4" y2="240.4">
  </line>
  <g class="st1">
   <path d="M276.6,232.3V231c-0.2,0.1-0.3,0.2-0.5,0.3V231c0.1,0,0.2-0.1,0.3-0.2s0.2-0.2,0.3-0.3h0.3v1.8H276.6z M276.3,234.2
			l2.6-3.7h0.4l-2.6,3.7H276.3z M278.3,234.1c0-0.1,0-0.2,0.1-0.3s0.3-0.3,0.5-0.5s0.4-0.3,0.4-0.3c0.1-0.1,0.1-0.1,0.1-0.2
			c0-0.1,0-0.1-0.1-0.2c-0.1,0-0.1-0.1-0.2-0.1s-0.2,0-0.2,0.1c-0.1,0-0.1,0.1-0.1,0.2h-0.4c0-0.2,0.1-0.3,0.2-0.4
			c0.1-0.1,0.3-0.1,0.5-0.1s0.4,0,0.5,0.1s0.2,0.2,0.2,0.3s0,0.3-0.1,0.4c-0.1,0.1-0.2,0.2-0.5,0.4c-0.1,0.1-0.2,0.2-0.3,0.2h0.9
			v0.3h-1.5V234.1z">
   </path>
   <path d="M281.3,234.1l1.3-1.8l-1.2-1.7h0.5l0.6,0.9c0.1,0.2,0.2,0.3,0.3,0.4c0.1-0.1,0.2-0.3,0.3-0.4l0.7-0.9h0.5l-1.2,1.6
			l1.3,1.8h-0.6l-0.9-1.2c0-0.1-0.1-0.1-0.2-0.2c-0.1,0.1-0.1,0.2-0.2,0.3l-0.9,1.2L281.3,234.1L281.3,234.1z">
   </path>
  </g>
  <g class="st1">
   <path d="M234.7,234.1l1.3-1.8l-1.2-1.7h0.5l0.6,0.9c0.1,0.2,0.2,0.3,0.3,0.4c0.1-0.1,0.2-0.3,0.3-0.4l0.7-0.9h0.5l-1.2,1.6
			l1.3,1.8h-0.6l-0.9-1.2c0-0.1-0.1-0.1-0.2-0.2c-0.1,0.1-0.1,0.2-0.2,0.3l-0.9,1.2L234.7,234.1L234.7,234.1z">
   </path>
  </g>
  <line class="st8" x1="320.2" y1="521.4" x2="420.2" y2="521.4">
  </line>
  <line class="st8" x1="320.2" y1="517" x2="320.2" y2="525.7">
  </line>
  <line class="st8" x1="420.2" y1="517" x2="420.2" y2="525.7">
  </line>
  <g class="st1">
   <path d="M505.9,238.8l1.3-1.8l-1.2-1.7h0.5l0.6,0.9c0.1,0.2,0.2,0.3,0.3,0.4c0.1-0.1,0.2-0.3,0.3-0.4l0.7-0.9h0.5l-1.2,1.6
			l1.3,1.8h-0.6l-0.9-1.2c0-0.1-0.1-0.1-0.2-0.2c-0.1,0.1-0.1,0.2-0.2,0.3l-0.9,1.2L505.9,238.8L505.9,238.8z">
   </path>
  </g>
  <g class="st1">
   <g>
    <path class="st10" d="M47.6,498.8l0.8-1c0.5,0.4,1.1,0.7,1.6,0.7c0.6,0,0.9-0.2,0.9-0.6s-0.4-0.5-0.9-0.8l-0.8-0.4
				c-0.7-0.3-1.3-0.8-1.3-1.8c0-1.1,1-1.9,2.3-1.9c0.7,0,1.5,0.3,2.1,0.9l-0.7,0.9c-0.4-0.3-0.8-0.5-1.3-0.5s-0.8,0.2-0.8,0.6
				s0.4,0.5,1,0.8l0.8,0.3c0.8,0.3,1.3,0.8,1.3,1.8c0,1.1-0.9,2-2.5,2C49.2,499.7,48.3,499.4,47.6,498.8z">
    </path>
    <path class="st10" d="M53.5,492.6H55v1.7l-0.1,0.9c0.4-0.3,0.9-0.7,1.5-0.7c1.1,0,1.5,0.8,1.5,2v3.1h-1.5v-2.9
				c0-0.7-0.2-0.9-0.6-0.9s-0.6,0.2-0.9,0.5v3.3h-1.5L53.5,492.6L53.5,492.6z">
    </path>
    <path class="st10" d="M58.9,498.2c0-1,0.8-1.6,2.8-1.8c0-0.4-0.2-0.7-0.8-0.7c-0.4,0-0.8,0.2-1.3,0.5l-0.5-1
				c0.6-0.4,1.3-0.6,2.1-0.6c1.3,0,2,0.7,2,2.2v2.8H62l-0.1-0.5l0,0c-0.4,0.4-0.9,0.6-1.4,0.6C59.5,499.7,58.9,499,58.9,498.2z
				 M61.7,498.1v-0.9c-1,0.1-1.4,0.4-1.4,0.8c0,0.3,0.2,0.5,0.6,0.5C61.3,498.6,61.5,498.4,61.7,498.1z">
    </path>
    <path class="st10" d="M64.4,494.6h1.2l0.1,0.9l0,0c0.4-0.7,0.9-1,1.4-1c0.3,0,0.4,0,0.6,0.1l-0.2,1.3c-0.2,0-0.3-0.1-0.5-0.1
				c-0.4,0-0.8,0.2-1.1,0.9v2.9h-1.5V494.6z">
    </path>
    <path class="st10" d="M68.4,494.6h1.2l0.1,0.5l0,0c0.4-0.3,0.9-0.6,1.4-0.6c1.2,0,1.9,1,1.9,2.5c0,1.7-1,2.7-2.1,2.7
				c-0.4,0-0.8-0.2-1.2-0.5v0.8v1.4h-1.5v-6.8H68.4z M71.6,497c0-0.9-0.3-1.3-0.9-1.3c-0.3,0-0.6,0.1-0.8,0.5v2
				c0.3,0.2,0.5,0.3,0.8,0.3C71.2,498.5,71.6,498.1,71.6,497z">
    </path>
    <path class="st10" d="M76.3,493.1h2.2c1.3,0,2.4,0.4,2.4,1.6c0,0.6-0.3,1.2-0.8,1.4l0,0c0.7,0.2,1.2,0.7,1.2,1.5
				c0,1.3-1.1,1.9-2.5,1.9h-2.4L76.3,493.1L76.3,493.1z M78.4,495.7c0.7,0,1-0.3,1-0.8s-0.3-0.7-1-0.7h-0.7v1.5H78.4z M78.6,498.4
				c0.8,0,1.2-0.3,1.2-0.9s-0.4-0.8-1.2-0.8h-0.8v1.7L78.6,498.4L78.6,498.4z">
    </path>
    <path class="st10" d="M82.2,498v-5.5h1.5v5.5c0,0.3,0.1,0.4,0.3,0.4c0.1,0,0.1,0,0.2,0l0.2,1.1c-0.2,0.1-0.4,0.1-0.7,0.1
				C82.5,499.7,82.2,499,82.2,498z">
    </path>
    <path class="st10" d="M85,497.7v-3.1h1.5v2.9c0,0.7,0.2,0.9,0.6,0.9s0.6-0.2,0.9-0.5v-3.3h1.5v5h-1.2l-0.1-0.7l0,0
				c-0.4,0.5-0.9,0.8-1.6,0.8C85.5,499.7,85,498.9,85,497.7z">
    </path>
    <path class="st10" d="M90.5,497.1c0-1.6,1.1-2.6,2.3-2.6c1.4,0,2.1,1,2.1,2.4c0,0.3,0,0.5-0.1,0.6h-3c0.1,0.7,0.6,1,1.3,1
				c0.4,0,0.7-0.1,1.1-0.3l0.5,0.9c-0.5,0.3-1.2,0.6-1.8,0.6C91.5,499.7,90.5,498.7,90.5,497.1z M93.7,496.6c0-0.5-0.2-0.9-0.8-0.9
				c-0.5,0-0.9,0.3-1,0.9H93.7z">
    </path>
   </g>
   <g>
    <path class="st10" d="M48.2,505H49v2.7h3V505h0.8v6.6H52v-3.1h-3v3.1h-0.8V505z">
    </path>
    <path class="st10" d="M54.2,509.2c0-1.6,1.1-2.6,2.2-2.6c1.2,0,1.9,0.9,1.9,2.3c0,0.2,0,0.3,0,0.5H55c0.1,1,0.7,1.7,1.6,1.7
				c0.5,0,0.8-0.1,1.2-0.4l0.3,0.5c-0.4,0.3-0.9,0.5-1.6,0.5C55.3,511.7,54.2,510.7,54.2,509.2z M57.6,508.8c0-1-0.4-1.5-1.2-1.5
				c-0.7,0-1.3,0.5-1.4,1.5H57.6z">
    </path>
    <path class="st10" d="M60.4,509l-1.5-2.3h0.9l0.6,1.1c0.1,0.3,0.3,0.5,0.5,0.8l0,0c0.1-0.3,0.3-0.5,0.4-0.8l0.6-1.1h0.9l-1.5,2.4
				l1.6,2.4H62l-0.7-1.1c-0.2-0.3-0.4-0.6-0.5-0.9l0,0c-0.2,0.3-0.3,0.6-0.5,0.9l-0.7,1.1h-0.9L60.4,509z">
    </path>
    <path class="st10" d="M63.8,507.5c0-0.4,0.3-0.6,0.6-0.6c0.3,0,0.6,0.3,0.6,0.6c0,0.4-0.3,0.6-0.6,0.6
				C64.1,508.1,63.8,507.8,63.8,507.5z M63.8,511.1c0-0.4,0.3-0.6,0.6-0.6c0.3,0,0.6,0.3,0.6,0.6c0,0.4-0.3,0.6-0.6,0.6
				C64.1,511.7,63.8,511.4,63.8,511.1z">
    </path>
    <path class="st10" d="M68.8,509.5H68V509h0.9l0.2-1.5h-0.8v-0.6h0.9l0.2-1.8h0.5l-0.2,1.8H71l0.2-1.8h0.5l-0.2,1.8h0.8v0.6h-0.9
				l-0.2,1.5H72v0.6h-0.9l-0.2,2h-0.5l0.2-2h-1.3l-0.2,2h-0.5L68.8,509.5z M70.7,509l0.2-1.5h-1.3l-0.2,1.5H70.7z">
    </path>
    <path class="st10" d="M72.9,510.8l0.4-0.5c0.4,0.4,0.9,0.8,1.6,0.8c0.8,0,1.3-0.5,1.3-1.2c0-0.8-0.5-1.3-2-1.3V508
				c1.4,0,1.8-0.5,1.8-1.2c0-0.6-0.4-1-1.1-1c-0.5,0-1,0.3-1.4,0.7l-0.4-0.5c0.5-0.5,1.1-0.8,1.8-0.8c1.1,0,1.9,0.6,1.9,1.6
				c0,0.8-0.5,1.3-1.2,1.5l0,0c0.8,0.2,1.4,0.7,1.4,1.6c0,1.1-0.9,1.8-2.1,1.8C73.9,511.7,73.3,511.3,72.9,510.8z">
    </path>
    <path class="st10" d="M78.5,510.5c0.3,0.3,0.6,0.5,1,0.5c0.9,0,1.7-0.7,1.7-2.7c-0.4,0.5-1,0.8-1.5,0.8c-1.1,0-1.8-0.7-1.8-2
				c0-1.2,0.9-2,1.9-2c1.3,0,2.2,1,2.2,3.1c0,2.6-1.2,3.5-2.4,3.5c-0.7,0-1.2-0.3-1.5-0.7L78.5,510.5z M81.2,507.6
				c-0.1-1.2-0.6-1.9-1.4-1.9c-0.6,0-1.1,0.6-1.1,1.4s0.4,1.3,1.2,1.3C80.3,508.5,80.8,508.2,81.2,507.6z">
    </path>
    <path class="st10" d="M83.1,508.3c0-2.1,1.2-3.4,2.9-3.4c0.8,0,1.4,0.4,1.8,0.8l-0.4,0.5c-0.3-0.4-0.8-0.6-1.3-0.6
				c-1.2,0-2.1,1-2.1,2.6s0.8,2.7,2,2.7c0.6,0,1.1-0.3,1.5-0.7l0.5,0.5c-0.5,0.6-1.2,0.9-2,0.9C84.3,511.7,83.1,510.4,83.1,508.3z">
    </path>
    <path class="st10" d="M88.6,511.1c1.9-1.9,3-3.1,3-4.1c0-0.7-0.4-1.2-1.2-1.2c-0.5,0-1,0.3-1.4,0.8l-0.5-0.5c0.5-0.6,1.1-1,1.9-1
				c1.2,0,1.9,0.7,1.9,1.9c0,1.2-1.1,2.4-2.6,4c0.3,0,0.7-0.1,1.1-0.1h1.8v0.7h-4.1L88.6,511.1L88.6,511.1z">
    </path>
    <path class="st10" d="M94.1,505h1.6c2,0,3.1,1.2,3.1,3.2c0,2.1-1.1,3.3-3.1,3.3H94L94.1,505L94.1,505z M95.7,510.9
				c1.5,0,2.3-1,2.3-2.6c0-1.6-0.8-2.6-2.3-2.6H95v5.2H95.7z">
    </path>
    <path class="st10" d="M103,505.9h-3.2v-0.7h4.1v0.5c-1.5,1.9-1.8,3.4-1.9,5.9h-0.8C101.2,509.2,101.7,507.7,103,505.9z">
    </path>
   </g>
   <g>
    <path class="st10" d="M51.8,523.6l-1.6-2.8H49v2.8h-0.8V517h2c1.3,0,2.3,0.5,2.3,1.8c0,1-0.6,1.6-1.5,1.9l1.7,2.9L51.8,523.6
				L51.8,523.6z M49,520.1h1.1c1,0,1.6-0.4,1.6-1.3c0-0.9-0.6-1.2-1.6-1.2H49V520.1z">
    </path>
    <path class="st10" d="M53.5,520.3c0-2.1,1.3-3.4,3-3.4c0.9,0,1.5,0.4,1.9,0.8l-0.5,0.5c-0.3-0.3-0.8-0.6-1.4-0.6
				c-1.3,0-2.2,1-2.2,2.6s0.8,2.7,2.2,2.7c0.5,0,0.9-0.2,1.2-0.4v-1.7h-1.4v-0.7h2.1v2.8c-0.4,0.4-1.1,0.8-2,0.8
				C54.7,523.7,53.5,522.4,53.5,520.3z">
    </path>
    <path class="st10" d="M60,517h2c1.3,0,2.2,0.5,2.2,1.6c0,0.6-0.3,1.2-1,1.4l0,0c0.8,0.2,1.3,0.7,1.3,1.6c0,1.3-1,1.9-2.5,1.9h-2
				V517z M61.8,519.8c1.1,0,1.6-0.4,1.6-1.1c0-0.8-0.5-1-1.5-1h-1v2.1H61.8z M62,522.9c1.1,0,1.8-0.4,1.8-1.3c0-0.8-0.6-1.2-1.8-1.2
				h-1.1v2.5H62z">
    </path>
    <path class="st10" d="M65.6,519.5c0-0.4,0.3-0.6,0.6-0.6c0.3,0,0.6,0.3,0.6,0.6c0,0.4-0.3,0.6-0.6,0.6S65.6,519.8,65.6,519.5z
				 M65.6,523.1c0-0.4,0.3-0.6,0.6-0.6c0.3,0,0.6,0.3,0.6,0.6c0,0.4-0.3,0.6-0.6,0.6C65.9,523.7,65.6,523.4,65.6,523.1z">
    </path>
    <path class="st10" d="M69.7,522.8l0.4-0.5c0.4,0.4,0.9,0.7,1.6,0.7c0.8,0,1.4-0.6,1.4-1.5s-0.5-1.4-1.4-1.4
				c-0.4,0-0.7,0.1-1.1,0.4l-0.4-0.3l0.2-3.1h3.2v0.7h-2.5l-0.2,1.9c0.3-0.2,0.6-0.3,1-0.3c1.1,0,2,0.6,2,2s-1,2.2-2.1,2.2
				C70.8,523.7,70.2,523.3,69.7,522.8z">
    </path>
    <path class="st10" d="M78.1,517.9h-3.2v-0.7H79v0.5c-1.5,1.9-1.8,3.4-1.9,5.9h-0.8C76.3,521.2,76.8,519.7,78.1,517.9z">
    </path>
    <path class="st10" d="M79.9,524.8c0.6-0.2,0.9-0.7,0.9-1.2h-0.1c-0.3,0-0.6-0.2-0.6-0.6c0-0.4,0.3-0.6,0.6-0.6
				c0.4,0,0.7,0.4,0.7,1c0,0.9-0.5,1.5-1.3,1.9L79.9,524.8z">
    </path>
    <path class="st10" d="M84.7,522.9h1.5v-4.7H85v-0.5c0.6-0.1,1-0.3,1.3-0.5h0.6v5.7h1.3v0.7h-3.6L84.7,522.9L84.7,522.9z">
    </path>
    <path class="st10" d="M89.9,522.5c0.3,0.3,0.6,0.5,1,0.5c0.9,0,1.7-0.7,1.7-2.7c-0.4,0.5-1,0.8-1.5,0.8c-1.1,0-1.8-0.7-1.8-2
				c0-1.2,0.9-2,1.9-2c1.3,0,2.2,1,2.2,3.1c0,2.6-1.2,3.5-2.4,3.5c-0.7,0-1.2-0.3-1.5-0.7L89.9,522.5z M92.6,519.6
				c-0.1-1.2-0.6-1.9-1.4-1.9c-0.6,0-1.1,0.6-1.1,1.4c0,0.8,0.4,1.3,1.2,1.3C91.6,520.5,92.1,520.2,92.6,519.6z">
    </path>
    <path class="st10" d="M98.5,521.8h-0.9v1.8h-0.8v-1.8H94v-0.5l2.7-4.1h0.9v4h0.9V521.8z M96.9,521.2v-1.8c0-0.3,0-0.9,0-1.2l0,0
				c-0.2,0.3-0.3,0.6-0.5,0.9l-1.5,2.2h2V521.2z">
    </path>
    <path class="st10" d="M99.3,524.8c0.6-0.2,0.9-0.7,0.9-1.2h-0.1c-0.3,0-0.6-0.2-0.6-0.6c0-0.4,0.3-0.6,0.6-0.6
				c0.4,0,0.7,0.4,0.7,1c0,0.9-0.5,1.5-1.3,1.9L99.3,524.8z">
    </path>
    <path class="st10" d="M103.7,523.1c1.9-1.9,3-3.1,3-4.1c0-0.7-0.4-1.2-1.2-1.2c-0.5,0-1,0.3-1.4,0.8l-0.5-0.5
				c0.5-0.6,1.1-1,1.9-1c1.2,0,1.9,0.7,1.9,1.9s-1.1,2.4-2.6,4c0.3,0,0.7-0.1,1.1-0.1h1.8v0.7h-4.1L103.7,523.1L103.7,523.1z">
    </path>
    <path class="st10" d="M109.1,522.9h1.5v-4.7h-1.2v-0.5c0.6-0.1,1-0.3,1.3-0.5h0.6v5.7h1.3v0.7H109L109.1,522.9L109.1,522.9z">
    </path>
    <path class="st10" d="M113.5,522.8l0.4-0.5c0.4,0.4,0.9,0.7,1.6,0.7c0.8,0,1.4-0.6,1.4-1.5s-0.5-1.4-1.4-1.4
				c-0.4,0-0.7,0.1-1.1,0.4l-0.4-0.3l0.2-3.1h3.2v0.7h-2.5l-0.2,1.9c0.3-0.2,0.6-0.3,1-0.3c1.1,0,2,0.6,2,2s-1,2.2-2.1,2.2
				C114.6,523.7,113.9,523.3,113.5,522.8z">
    </path>
   </g>
   <g>
    <path class="st10" d="M47.8,532.3c0-2.1,1.2-3.4,2.9-3.4c0.8,0,1.4,0.4,1.8,0.8l-0.4,0.5c-0.3-0.4-0.8-0.6-1.3-0.6
				c-1.2,0-2.1,1-2.1,2.6s0.8,2.7,2,2.7c0.6,0,1.1-0.3,1.5-0.7l0.5,0.5c-0.5,0.6-1.2,0.9-2,0.9C49,535.7,47.8,534.4,47.8,532.3z">
    </path>
    <path class="st10" d="M53.9,529h1l1.3,3.5c0.2,0.5,0.3,0.9,0.5,1.4l0,0c0.2-0.4,0.3-0.9,0.4-1.4l1.2-3.5h1v6.6h-0.8V532
				c0-0.6,0.1-1.4,0.1-1.9l0,0l-0.5,1.5l-1.2,3.4h-0.5l-1.2-3.4l-0.5-1.5l0,0c0,0.6,0.1,1.4,0.1,1.9v3.6h-0.7V529H53.9z">
    </path>
    <path class="st10" d="M62.2,533l-2-4h0.9l0.8,1.8c0.2,0.5,0.4,0.9,0.6,1.4l0,0c0.2-0.5,0.5-0.9,0.7-1.4L64,529h1l-2,4v2.5h-0.8
				V533z">
    </path>
    <path class="st10" d="M65.9,529h0.8v3.3l0,0l2.7-3.3h0.9l-2,2.5l2.4,4.1h-0.9l-2-3.4l-1.1,1.3v2.1h-0.8V529z">
    </path>
    <path class="st10" d="M71.4,531.5c0-0.4,0.3-0.6,0.6-0.6c0.3,0,0.6,0.3,0.6,0.6c0,0.4-0.3,0.6-0.6,0.6
				C71.7,532.1,71.4,531.8,71.4,531.5z M71.4,535.1c0-0.4,0.3-0.6,0.6-0.6c0.3,0,0.6,0.3,0.6,0.6c0,0.4-0.3,0.6-0.6,0.6
				C71.7,535.7,71.4,535.4,71.4,535.1z">
    </path>
    <path class="st10" d="M75.7,533.9c0-0.8,0.6-1.4,1.2-1.7l0,0c-0.5-0.3-0.9-0.8-0.9-1.5c0-1,0.8-1.6,1.8-1.6
				c1.1,0,1.8,0.7,1.8,1.7c0,0.7-0.5,1.2-0.9,1.5l0,0c0.6,0.3,1.1,0.8,1.1,1.6c0,0.9-0.8,1.7-2.1,1.7
				C76.6,535.7,75.7,535,75.7,533.9z M79,534c0-0.8-0.8-1.1-1.7-1.5c-0.5,0.3-0.9,0.8-0.9,1.4c0,0.7,0.6,1.2,1.4,1.2
				C78.5,535.1,79,534.6,79,534z M78.9,530.8c0-0.6-0.4-1.1-1.1-1.1c-0.6,0-1,0.4-1,1c0,0.8,0.7,1.1,1.5,1.4
				C78.6,531.7,78.9,531.3,78.9,530.8z">
    </path>
    <path class="st10" d="M84.9,533.8H84v1.8h-0.8v-1.8h-2.9v-0.5l2.7-4.1h0.9v4h0.9v0.6H84.9z M83.3,533.2v-1.8c0-0.3,0-0.9,0.1-1.2
				l0,0c-0.2,0.3-0.3,0.6-0.5,0.9l-1.5,2.2h1.9V533.2z">
    </path>
    <path class="st10" d="M85.7,536.8c0.6-0.2,0.9-0.7,0.9-1.2h-0.1c-0.3,0-0.6-0.2-0.6-0.6c0-0.4,0.3-0.6,0.6-0.6
				c0.4,0,0.7,0.4,0.7,1c0,0.9-0.5,1.5-1.3,1.9L85.7,536.8z">
    </path>
    <path class="st10" d="M90.1,532.4c0-2.1,0.8-3.3,2-3.3c1.3,0,2,1.1,2,3.3s-0.8,3.3-2,3.3S90.1,534.5,90.1,532.4z M93.4,532.4
				c0-1.9-0.5-2.6-1.2-2.6s-1.2,0.8-1.2,2.6s0.5,2.7,1.2,2.7C92.9,535,93.4,534.2,93.4,532.4z">
    </path>
    <path class="st10" d="M95.1,536.8c0.6-0.2,0.9-0.7,0.9-1.2h-0.1c-0.3,0-0.6-0.2-0.6-0.6c0-0.4,0.3-0.6,0.6-0.6
				c0.4,0,0.7,0.4,0.7,1c0,0.9-0.5,1.5-1.3,1.9L95.1,536.8z">
    </path>
    <path class="st10" d="M100,534.9h1.5v-4.7h-1.2v-0.5c0.6-0.1,1-0.3,1.3-0.5h0.6v5.7h1.3v0.7H100V534.9z">
    </path>
    <path class="st10" d="M104.5,533.9c0-0.8,0.6-1.4,1.2-1.7l0,0c-0.5-0.3-0.9-0.8-0.9-1.5c0-1,0.8-1.6,1.8-1.6
				c1.1,0,1.8,0.7,1.8,1.7c0,0.7-0.5,1.2-0.9,1.5l0,0c0.6,0.3,1.1,0.8,1.1,1.6c0,0.9-0.8,1.7-2.1,1.7
				C105.4,535.7,104.5,535,104.5,533.9z M107.9,534c0-0.8-0.8-1.1-1.7-1.5c-0.5,0.3-0.9,0.8-0.9,1.4c0,0.7,0.6,1.2,1.4,1.2
				C107.4,535.1,107.9,534.6,107.9,534z M107.7,530.8c0-0.6-0.4-1.1-1.1-1.1c-0.6,0-1,0.4-1,1c0,0.8,0.7,1.1,1.5,1.4
				C107.5,531.7,107.7,531.3,107.7,530.8z">
    </path>
    <path class="st10" d="M109.6,536.8c0.6-0.2,0.9-0.7,0.9-1.2h-0.1c-0.3,0-0.6-0.2-0.6-0.6c0-0.4,0.3-0.6,0.6-0.6
				c0.4,0,0.7,0.4,0.7,1c0,0.9-0.5,1.5-1.3,1.9L109.6,536.8z">
    </path>
    <path class="st10" d="M114,532.4c0-2.1,0.8-3.3,2-3.3c1.3,0,2,1.1,2,3.3s-0.8,3.3-2,3.3S114,534.5,114,532.4z M117.3,532.4
				c0-1.9-0.5-2.6-1.2-2.6s-1.2,0.8-1.2,2.6s0.5,2.7,1.2,2.7C116.8,535,117.3,534.2,117.3,532.4z">
    </path>
   </g>
   <g>
    <path class="st10" d="M48.2,541H50c1.5,0,2.5,0.5,2.5,1.9s-1,2-2.4,2H49v2.6h-0.8V541z M50,544.3c1.1,0,1.7-0.4,1.7-1.3
				c0-0.9-0.6-1.3-1.7-1.3h-1v2.6H50z">
    </path>
    <path class="st10" d="M53.8,541h1l1.3,3.5c0.2,0.5,0.3,0.9,0.5,1.4l0,0c0.2-0.4,0.3-0.9,0.4-1.4l1.2-3.5h1v6.6h-0.8V544
				c0-0.6,0.1-1.4,0.1-1.9l0,0l-0.5,1.5l-1.2,3.4h-0.5l-1.2-3.4l-0.5-1.5l0,0c0,0.6,0.1,1.4,0.1,1.9v3.6H54V541H53.8z">
    </path>
    <path class="st10" d="M60.6,546.7l0.5-0.6c0.5,0.5,1.1,0.8,1.8,0.8c0.9,0,1.4-0.4,1.4-1.1c0-0.7-0.5-0.9-1.1-1.2l-0.9-0.4
				c-0.6-0.3-1.3-0.7-1.3-1.7s0.9-1.7,2.1-1.7c0.8,0,1.5,0.3,1.9,0.8l-0.4,0.5c-0.4-0.4-0.9-0.6-1.5-0.6c-0.7,0-1.2,0.4-1.2,1
				s0.6,0.9,1.1,1.1l0.9,0.4c0.8,0.3,1.3,0.8,1.3,1.7c0,1-0.8,1.9-2.2,1.9C62,547.7,61.2,547.3,60.6,546.7z">
    </path>
    <path class="st10" d="M66.2,543.5c0-0.4,0.3-0.6,0.6-0.6c0.3,0,0.6,0.3,0.6,0.6c0,0.4-0.3,0.6-0.6,0.6
				C66.4,544.1,66.2,543.8,66.2,543.5z M66.2,547.1c0-0.4,0.3-0.6,0.6-0.6c0.3,0,0.6,0.3,0.6,0.6c0,0.4-0.3,0.6-0.6,0.6
				C66.4,547.7,66.2,547.4,66.2,547.1z">
    </path>
    <path class="st10" d="M70.3,546.8l0.4-0.5c0.4,0.4,0.9,0.8,1.6,0.8c0.8,0,1.3-0.5,1.3-1.2c0-0.8-0.5-1.3-2-1.3V544
				c1.4,0,1.8-0.5,1.8-1.2c0-0.6-0.4-1-1.1-1c-0.5,0-1,0.3-1.4,0.7l-0.4-0.5c0.5-0.5,1.1-0.8,1.8-0.8c1.1,0,1.9,0.6,1.9,1.6
				c0,0.8-0.5,1.3-1.2,1.5l0,0c0.8,0.2,1.4,0.7,1.4,1.6c0,1.1-0.9,1.8-2.1,1.8C71.4,547.7,70.7,547.3,70.3,546.8z">
    </path>
    <path class="st10" d="M75.8,546.9h1.5v-4.7h-1.2v-0.5c0.6-0.1,1-0.3,1.3-0.5H78v5.7h1.3v0.7h-3.6L75.8,546.9L75.8,546.9z">
    </path>
    <path class="st10" d="M80.4,547.1c1.9-1.9,3-3.1,3-4.1c0-0.7-0.4-1.2-1.2-1.2c-0.5,0-1,0.3-1.4,0.8l-0.5-0.5c0.5-0.6,1.1-1,1.9-1
				c1.2,0,1.9,0.7,1.9,1.9s-1.1,2.4-2.6,4c0.3,0,0.7-0.1,1.1-0.1h1.8v0.7h-4.1L80.4,547.1L80.4,547.1z">
    </path>
    <path class="st10" d="M85.2,546.8l0.4-0.5c0.4,0.4,0.9,0.7,1.6,0.7c0.8,0,1.4-0.6,1.4-1.5s-0.5-1.4-1.4-1.4
				c-0.4,0-0.7,0.1-1.1,0.4l-0.4-0.3l0.2-3.1h3.2v0.7h-2.5l-0.2,1.9c0.3-0.2,0.6-0.3,1-0.3c1.1,0,2,0.6,2,2s-1,2.2-2.1,2.2
				C86.2,547.7,85.6,547.3,85.2,546.8z">
    </path>
    <path class="st10" d="M92.4,544.3c0-2.1,1.2-3.4,2.9-3.4c0.8,0,1.4,0.4,1.8,0.8l-0.4,0.5c-0.3-0.4-0.8-0.6-1.3-0.6
				c-1.2,0-2.1,1-2.1,2.6s0.8,2.7,2,2.7c0.6,0,1.1-0.3,1.5-0.7l0.5,0.5c-0.5,0.6-1.2,0.9-2,0.9C93.6,547.7,92.4,546.4,92.4,544.3z">
    </path>
   </g>
   <g>
    <path class="st10" d="M161.9,496.4c0-2.2,1.4-3.4,3.2-3.4c0.9,0,1.6,0.4,2,0.8l-0.8,0.9c-0.3-0.3-0.7-0.5-1.2-0.5
				c-1,0-1.7,0.8-1.7,2.1c0,1.3,0.6,2.1,1.8,2.1c0.3,0,0.5-0.1,0.7-0.2v-1.1h-1.1v-1.2h2.4v3c-0.4,0.4-1.2,0.8-2.1,0.8
				C163.3,499.7,161.9,498.5,161.9,496.4z">
    </path>
    <path class="st10" d="M168.5,494.6h1.2l0.1,0.9l0,0c0.4-0.7,0.9-1,1.4-1c0.3,0,0.4,0,0.6,0.1l-0.2,1.3c-0.2,0-0.3-0.1-0.5-0.1
				c-0.4,0-0.8,0.2-1.1,0.9v2.9h-1.5V494.6z">
    </path>
    <path class="st10" d="M172,498.2c0-1,0.8-1.6,2.8-1.8c0-0.4-0.2-0.7-0.8-0.7c-0.4,0-0.8,0.2-1.3,0.5l-0.5-1
				c0.6-0.4,1.3-0.6,2.1-0.6c1.3,0,2,0.7,2,2.2v2.8H175l-0.1-0.5l0,0c-0.4,0.4-0.9,0.6-1.4,0.6C172.5,499.7,172,499,172,498.2z
				 M174.7,498.1v-0.9c-1,0.1-1.4,0.4-1.4,0.8c0,0.3,0.2,0.5,0.6,0.5C174.3,498.6,174.5,498.4,174.7,498.1z">
    </path>
    <path class="st10" d="M177.5,494.6h1.2l0.1,0.5l0,0c0.4-0.3,0.9-0.6,1.4-0.6c1.2,0,1.9,1,1.9,2.5c0,1.7-1,2.7-2.1,2.7
				c-0.4,0-0.8-0.2-1.2-0.5v0.8v1.4h-1.5v-6.8H177.5z M180.6,497c0-0.9-0.3-1.3-0.9-1.3c-0.3,0-0.6,0.1-0.8,0.5v2
				c0.3,0.2,0.5,0.3,0.8,0.3C180.2,498.5,180.6,498.1,180.6,497z">
    </path>
    <path class="st10" d="M183.2,492.6h1.5v1.7l-0.1,0.9c0.4-0.3,0.9-0.7,1.5-0.7c1.1,0,1.5,0.8,1.5,2v3.1h-1.5v-2.9
				c0-0.7-0.2-0.9-0.6-0.9c-0.4,0-0.6,0.2-0.9,0.5v3.3h-1.5v-7H183.2z">
    </path>
    <path class="st10" d="M188.8,493.1c0-0.5,0.4-0.8,0.8-0.8c0.5,0,0.8,0.3,0.8,0.8c0,0.4-0.4,0.8-0.8,0.8
				C189.1,493.9,188.8,493.6,188.8,493.1z M188.9,494.6h1.5v5h-1.5V494.6z">
    </path>
    <path class="st10" d="M191.9,497.8v-2h-0.7v-1.1l0.8-0.1l0.2-1.3h1.2v1.3h1.2v1.1h-1.2v2c0,0.6,0.2,0.8,0.6,0.8
				c0.2,0,0.3,0,0.5-0.1l0.2,1.1c-0.3,0.1-0.6,0.2-1.1,0.2C192.3,499.7,191.9,498.9,191.9,497.8z">
    </path>
    <path class="st10" d="M195,497.1c0-1.6,1.1-2.6,2.3-2.6c1.4,0,2.1,1,2.1,2.4c0,0.3,0,0.5-0.1,0.6h-3c0.1,0.7,0.6,1,1.3,1
				c0.4,0,0.7-0.1,1.1-0.3l0.5,0.9c-0.5,0.3-1.2,0.6-1.8,0.6C196.1,499.7,195,498.7,195,497.1z M198.2,496.6c0-0.5-0.2-0.9-0.8-0.9
				c-0.5,0-0.9,0.3-1,0.9H198.2z">
    </path>
   </g>
   <g>
    <path class="st10" d="M162.3,505h0.8v2.7h3V505h0.8v6.6h-0.8v-3.1h-3v3.1h-0.8V505z">
    </path>
    <path class="st10" d="M168.4,509.2c0-1.6,1.1-2.6,2.2-2.6c1.2,0,1.9,0.9,1.9,2.3c0,0.2,0,0.3,0,0.5h-3.3c0.1,1,0.7,1.7,1.6,1.7
				c0.5,0,0.8-0.1,1.2-0.4l0.3,0.5c-0.4,0.3-0.9,0.5-1.6,0.5C169.5,511.7,168.4,510.7,168.4,509.2z M171.8,508.8
				c0-1-0.4-1.5-1.2-1.5c-0.7,0-1.3,0.5-1.4,1.5H171.8z">
    </path>
    <path class="st10" d="M174.6,509l-1.5-2.3h0.9l0.6,1.1c0.1,0.3,0.3,0.5,0.5,0.8l0,0c0.1-0.3,0.3-0.5,0.4-0.8l0.6-1.1h0.9
				l-1.5,2.4l1.6,2.4h-0.9l-0.7-1.1c-0.2-0.3-0.4-0.6-0.5-0.9l0,0c-0.2,0.3-0.3,0.6-0.5,0.9l-0.7,1.1H173L174.6,509z">
    </path>
    <path class="st10" d="M178,507.5c0-0.4,0.3-0.6,0.6-0.6s0.6,0.3,0.6,0.6c0,0.4-0.3,0.6-0.6,0.6C178.2,508.1,178,507.8,178,507.5z
				 M178,511.1c0-0.4,0.3-0.6,0.6-0.6s0.6,0.3,0.6,0.6c0,0.4-0.3,0.6-0.6,0.6C178.2,511.7,178,511.4,178,511.1z">
    </path>
    <path class="st10" d="M183,509.5h-0.8V509h0.9l0.2-1.5h-0.8v-0.6h0.9l0.2-1.8h0.5l-0.2,1.8h1.3l0.2-1.8h0.5l-0.2,1.8h0.8v0.6
				h-0.9l-0.2,1.5h0.8v0.6h-0.9l-0.2,2h-0.5l0.2-2h-1.3l-0.2,2h-0.5L183,509.5z M184.9,509l0.2-1.5h-1.3l-0.2,1.5H184.9z">
    </path>
    <path class="st10" d="M191.5,509.8h-0.9v1.8h-0.8v-1.8H187v-0.5l2.7-4.1h0.9v4h0.9L191.5,509.8L191.5,509.8z M189.8,509.2v-1.8
				c0-0.3,0-0.9,0-1.2l0,0c-0.2,0.3-0.3,0.6-0.5,0.9l-1.5,2.2h2V509.2z">
    </path>
    <path class="st10" d="M195.7,506.3c-0.3-0.3-0.6-0.5-1-0.5c-0.9,0-1.6,0.7-1.7,2.7c0.4-0.5,1-0.8,1.5-0.8c1.1,0,1.8,0.7,1.8,2
				c0,1.2-0.9,2-1.9,2c-1.2,0-2.2-1-2.2-3.1c0-2.6,1.2-3.5,2.4-3.5c0.7,0,1.2,0.3,1.5,0.7L195.7,506.3z M195.5,509.6
				c0-0.8-0.4-1.3-1.2-1.3c-0.4,0-0.9,0.2-1.3,0.8c0.1,1.2,0.6,1.9,1.4,1.9C195.1,511,195.5,510.5,195.5,509.6z">
    </path>
    <path class="st10" d="M201.4,509.8h-0.9v1.8h-0.8v-1.8h-2.9v-0.5l2.7-4.1h0.9v4h0.9v0.6L201.4,509.8L201.4,509.8z M199.8,509.2
				v-1.8c0-0.3,0-0.9,0-1.2l0,0c-0.2,0.3-0.3,0.6-0.5,0.9l-1.5,2.2h2V509.2z">
    </path>
    <path class="st10" d="M201.9,510.8l0.4-0.5c0.4,0.4,0.9,0.7,1.6,0.7c0.8,0,1.4-0.6,1.4-1.5s-0.5-1.4-1.4-1.4
				c-0.4,0-0.7,0.1-1.1,0.4l-0.4-0.3l0.2-3.1h3.2v0.7h-2.5l-0.2,1.9c0.3-0.2,0.6-0.3,1-0.3c1.1,0,2,0.6,2,2s-1,2.2-2.1,2.2
				C203,511.7,202.4,511.3,201.9,510.8z">
    </path>
    <path class="st10" d="M211.4,509.8h-0.9v1.8h-0.8v-1.8h-2.9v-0.5l2.7-4.1h0.9v4h0.9v0.6L211.4,509.8L211.4,509.8z M209.7,509.2
				v-1.8c0-0.3,0-0.9,0-1.2l0,0c-0.2,0.3-0.3,0.6-0.5,0.9l-1.5,2.2h2V509.2z">
    </path>
    <path class="st10" d="M215.3,505.9h-3.2v-0.7h4.1v0.5c-1.5,1.9-1.8,3.4-1.9,5.9h-0.8C213.5,509.2,214,507.7,215.3,505.9z">
    </path>
   </g>
   <g>
    <path class="st10" d="M165.9,523.6l-1.6-2.8h-1.2v2.8h-0.8V517h2c1.3,0,2.3,0.5,2.3,1.8c0,1-0.6,1.6-1.5,1.9l1.7,2.9L165.9,523.6
				L165.9,523.6z M163.2,520.1h1.1c1,0,1.6-0.4,1.6-1.3c0-0.9-0.6-1.2-1.6-1.2h-1.1V520.1z">
    </path>
    <path class="st10" d="M167.7,520.3c0-2.1,1.3-3.4,3-3.4c0.9,0,1.5,0.4,1.9,0.8l-0.5,0.5c-0.3-0.3-0.8-0.6-1.4-0.6
				c-1.3,0-2.2,1-2.2,2.6s0.8,2.7,2.2,2.7c0.5,0,0.9-0.2,1.2-0.4v-1.7h-1.4v-0.7h2.1v2.8c-0.4,0.4-1.1,0.8-2,0.8
				C168.9,523.7,167.7,522.4,167.7,520.3z">
    </path>
    <path class="st10" d="M174.2,517h1.9c1.3,0,2.2,0.5,2.2,1.6c0,0.6-0.3,1.2-1,1.4l0,0c0.8,0.2,1.3,0.7,1.3,1.6
				c0,1.3-1,1.9-2.5,1.9H174V517H174.2z M176,519.8c1.1,0,1.6-0.4,1.6-1.1c0-0.8-0.5-1-1.5-1h-1v2.1H176z M176.2,522.9
				c1.1,0,1.8-0.4,1.8-1.3c0-0.8-0.6-1.2-1.8-1.2H175v2.5H176.2z">
    </path>
    <path class="st10" d="M179.8,519.5c0-0.4,0.3-0.6,0.6-0.6s0.6,0.3,0.6,0.6c0,0.4-0.3,0.6-0.6,0.6S179.8,519.8,179.8,519.5z
				 M179.8,523.1c0-0.4,0.3-0.6,0.6-0.6s0.6,0.3,0.6,0.6c0,0.4-0.3,0.6-0.6,0.6C180.1,523.7,179.8,523.4,179.8,523.1z">
    </path>
    <path class="st10" d="M187.3,517.9h-3.2v-0.7h4.1v0.5c-1.5,1.9-1.8,3.4-1.9,5.9h-0.8C185.6,521.2,186,519.7,187.3,517.9z">
    </path>
    <path class="st10" d="M189.1,520.4c0-2.1,0.8-3.3,2-3.3c1.3,0,2,1.1,2,3.3s-0.8,3.3-2,3.3C189.9,523.7,189.1,522.5,189.1,520.4z
				 M192.4,520.4c0-1.9-0.5-2.6-1.2-2.6s-1.2,0.8-1.2,2.6s0.5,2.7,1.2,2.7C191.9,523,192.4,522.2,192.4,520.4z">
    </path>
    <path class="st10" d="M194.1,524.8c0.6-0.2,0.9-0.7,0.9-1.2h-0.1c-0.3,0-0.6-0.2-0.6-0.6c0-0.4,0.3-0.6,0.6-0.6
				c0.4,0,0.7,0.4,0.7,1c0,0.9-0.5,1.5-1.3,1.9L194.1,524.8z">
    </path>
    <path class="st10" d="M202.1,518.3c-0.3-0.3-0.6-0.5-1-0.5c-0.9,0-1.6,0.7-1.7,2.7c0.4-0.5,1-0.8,1.5-0.8c1.1,0,1.8,0.7,1.8,2
				c0,1.2-0.9,2-1.9,2c-1.2,0-2.2-1-2.2-3.1c0-2.6,1.2-3.5,2.4-3.5c0.7,0,1.2,0.3,1.5,0.7L202.1,518.3z M201.9,521.6
				c0-0.8-0.4-1.3-1.2-1.3c-0.4,0-0.9,0.2-1.3,0.8c0.1,1.2,0.6,1.9,1.4,1.9C201.4,523,201.9,522.5,201.9,521.6z">
    </path>
    <path class="st10" d="M204,522.5c0.3,0.3,0.6,0.5,1,0.5c0.9,0,1.7-0.7,1.7-2.7c-0.4,0.5-1,0.8-1.5,0.8c-1.1,0-1.8-0.7-1.8-2
				c0-1.2,0.9-2,1.9-2c1.3,0,2.2,1,2.2,3.1c0,2.6-1.2,3.5-2.4,3.5c-0.7,0-1.2-0.3-1.5-0.7L204,522.5z M206.8,519.6
				c-0.1-1.2-0.6-1.9-1.4-1.9c-0.6,0-1.1,0.6-1.1,1.4c0,0.8,0.4,1.3,1.2,1.3C205.8,520.5,206.3,520.2,206.8,519.6z">
    </path>
    <path class="st10" d="M208.5,524.8c0.6-0.2,0.9-0.7,0.9-1.2h-0.1c-0.3,0-0.6-0.2-0.6-0.6c0-0.4,0.3-0.6,0.6-0.6
				c0.4,0,0.7,0.4,0.7,1c0,0.9-0.5,1.5-1.3,1.9L208.5,524.8z">
    </path>
    <path class="st10" d="M216.2,517.9H213v-0.7h4.1v0.5c-1.5,1.9-1.8,3.4-1.9,5.9h-0.8C214.4,521.2,214.9,519.7,216.2,517.9z">
    </path>
    <path class="st10" d="M218.3,522.9h1.5v-4.7h-1.2v-0.5c0.6-0.1,1-0.3,1.3-0.5h0.6v5.7h1.3v0.7h-3.6L218.3,522.9L218.3,522.9z">
    </path>
   </g>
   <g>
    <path class="st10" d="M162,532.3c0-2.1,1.2-3.4,2.9-3.4c0.8,0,1.4,0.4,1.8,0.8l-0.4,0.5c-0.3-0.4-0.8-0.6-1.3-0.6
				c-1.2,0-2.1,1-2.1,2.6s0.8,2.7,2,2.7c0.6,0,1.1-0.3,1.5-0.7l0.5,0.5c-0.5,0.6-1.2,0.9-2,0.9C163.2,535.7,162,534.4,162,532.3z">
    </path>
    <path class="st10" d="M168.1,529h1l1.3,3.5c0.2,0.5,0.3,0.9,0.5,1.4l0,0c0.2-0.4,0.3-0.9,0.4-1.4l1.2-3.5h1v6.6h-0.8V532
				c0-0.6,0.1-1.4,0.1-1.9l0,0l-0.5,1.5l-1.2,3.4h-0.5l-1.2-3.4l-0.5-1.5l0,0c0,0.6,0.1,1.4,0.1,1.9v3.6h-0.7V529H168.1z">
    </path>
    <path class="st10" d="M176.4,533l-2-4h0.9l0.8,1.8c0.2,0.5,0.4,0.9,0.6,1.4l0,0c0.2-0.5,0.5-0.9,0.7-1.4l0.8-1.8h0.9l-2,4v2.5
				h-0.8V533H176.4z">
    </path>
    <path class="st10" d="M180.1,529h0.8v3.3l0,0l2.7-3.3h0.9l-2,2.5l2.4,4.1H184l-2-3.4l-1.1,1.3v2.1h-0.8L180.1,529L180.1,529z">
    </path>
    <path class="st10" d="M185.6,531.5c0-0.4,0.3-0.6,0.6-0.6s0.6,0.3,0.6,0.6c0,0.4-0.3,0.6-0.6,0.6
				C185.9,532.1,185.6,531.8,185.6,531.5z M185.6,535.1c0-0.4,0.3-0.6,0.6-0.6s0.6,0.3,0.6,0.6c0,0.4-0.3,0.6-0.6,0.6
				C185.9,535.7,185.6,535.4,185.6,535.1z">
    </path>
    <path class="st10" d="M189.9,532.4c0-2.1,0.8-3.3,2-3.3c1.3,0,2,1.1,2,3.3s-0.8,3.3-2,3.3S189.9,534.5,189.9,532.4z M193.2,532.4
				c0-1.9-0.5-2.6-1.2-2.6s-1.2,0.8-1.2,2.6s0.5,2.7,1.2,2.7C192.7,535,193.2,534.2,193.2,532.4z">
    </path>
    <path class="st10" d="M194.9,536.8c0.6-0.2,0.9-0.7,0.9-1.2h-0.1c-0.3,0-0.6-0.2-0.6-0.6c0-0.4,0.3-0.6,0.6-0.6
				c0.4,0,0.7,0.4,0.7,1c0,0.9-0.5,1.5-1.3,1.9L194.9,536.8z">
    </path>
    <path class="st10" d="M199.4,532.4c0-2.1,0.8-3.3,2-3.3c1.3,0,2,1.1,2,3.3s-0.8,3.3-2,3.3C200.1,535.7,199.4,534.5,199.4,532.4z
				 M202.7,532.4c0-1.9-0.5-2.6-1.2-2.6s-1.2,0.8-1.2,2.6s0.5,2.7,1.2,2.7C202.2,535,202.7,534.2,202.7,532.4z">
    </path>
    <path class="st10" d="M204.4,536.8c0.6-0.2,0.9-0.7,0.9-1.2h-0.1c-0.3,0-0.6-0.2-0.6-0.6c0-0.4,0.3-0.6,0.6-0.6
				c0.4,0,0.7,0.4,0.7,1c0,0.9-0.5,1.5-1.3,1.9L204.4,536.8z">
    </path>
    <path class="st10" d="M208.8,532.4c0-2.1,0.8-3.3,2-3.3c1.3,0,2,1.1,2,3.3s-0.8,3.3-2,3.3S208.8,534.5,208.8,532.4z M212.1,532.4
				c0-1.9-0.5-2.6-1.2-2.6s-1.2,0.8-1.2,2.6s0.5,2.7,1.2,2.7C211.6,535,212.1,534.2,212.1,532.4z">
    </path>
    <path class="st10" d="M213.8,536.8c0.6-0.2,0.9-0.7,0.9-1.2h-0.1c-0.3,0-0.6-0.2-0.6-0.6c0-0.4,0.3-0.6,0.6-0.6
				c0.4,0,0.7,0.4,0.7,1c0,0.9-0.5,1.5-1.3,1.9L213.8,536.8z">
    </path>
   </g>
   <g>
    <path class="st10" d="M217.5,533.9c0-0.8,0.6-1.4,1.2-1.7l0,0c-0.5-0.3-0.9-0.8-0.9-1.5c0-1,0.8-1.6,1.8-1.6
				c1.1,0,1.8,0.7,1.8,1.7c0,0.7-0.5,1.2-0.9,1.5l0,0c0.6,0.3,1.1,0.8,1.1,1.6c0,0.9-0.8,1.7-2.1,1.7
				C218.3,535.7,217.5,535,217.5,533.9z M220.8,534c0-0.8-0.8-1.1-1.7-1.5c-0.5,0.3-0.9,0.8-0.9,1.4c0,0.7,0.6,1.2,1.4,1.2
				C220.3,535.1,220.8,534.6,220.8,534z M220.7,530.8c0-0.6-0.4-1.1-1.1-1.1c-0.6,0-1,0.4-1,1c0,0.8,0.7,1.1,1.5,1.4
				C220.4,531.7,220.7,531.3,220.7,530.8z">
    </path>
    <path class="st10" d="M222.4,533.9c0-0.8,0.6-1.4,1.2-1.7l0,0c-0.5-0.3-0.9-0.8-0.9-1.5c0-1,0.8-1.6,1.8-1.6
				c1.1,0,1.8,0.7,1.8,1.7c0,0.7-0.5,1.2-0.9,1.5l0,0c0.6,0.3,1.1,0.8,1.1,1.6c0,0.9-0.8,1.7-2.1,1.7
				C223.3,535.7,222.4,535,222.4,533.9z M225.8,534c0-0.8-0.8-1.1-1.7-1.5c-0.5,0.3-0.9,0.8-0.9,1.4c0,0.7,0.6,1.2,1.4,1.2
				C225.3,535.1,225.8,534.6,225.8,534z M225.6,530.8c0-0.6-0.4-1.1-1.1-1.1c-0.6,0-1,0.4-1,1c0,0.8,0.7,1.1,1.5,1.4
				C225.4,531.7,225.6,531.3,225.6,530.8z">
    </path>
   </g>
  </g>
  <rect x="47.3" y="471.6" class="st11" width="57.1" height="13.5">
  </rect>
  <rect x="161.4" y="471.6" class="st12" width="57.1" height="13.5">
  </rect>
 </g>
 <g>
  <g>
   <path class="st13" d="M102.7,67.9h30.1V34.6c0-9.3-4.4-14-13.4-14H116c-8.9,0-13.4,4.7-13.4,14L102.7,67.9L102.7,67.9z
			 M102.7,89.2l0.1,36.6c0,9.3,4.5,13.9,13.4,13.9h3.9c8.9,0,13.4-4.6,13.4-13.9v-18H154v17.1c0,23.5-11.4,35.5-34,35.5h-4.5
			c-22.6,0-34-11.9-34-32.7V38.2c0-26.3,11.4-38.2,34-38.2h4.5c22.6,0,34,11.9,34,35.4l-0.1,53.7L102.7,89.2L102.7,89.2z">
   </path>
   <path class="st13" d="M188.9,131.3c5.8,5.2,12.5,8.1,19.5,8.1c7.8,0,12.3-3.8,12.3-12.8v-93c0-9-4.5-12.8-12.3-12.8
			c-7,0-13.7,2.9-19.5,8.1V131.3z M167.7,1.8h21.2V12c5-5.5,13.6-11.9,25.9-11.9c18.1,0,27,12.5,27,31.1v98.2
			c0,18.6-8.9,31.1-27,31.1c-12.3,0-20.9-6.1-25.9-11.3v50.6h-21.2V1.8z">
   </path>
   <path class="st13" d="M305.3,132.2V80.5l-19.2,7.6c-7.8,3.2-10.3,7.3-10.3,16.3v23.8c0,7.6,3.6,11.3,10.3,11.3
			C292.5,139.5,298.4,137.2,305.3,132.2 M254.6,104c0-19.5,6.1-27.3,22.3-33.1l28.4-10.2V34.6c0-9.3-4.5-14.2-13.4-14.2h-3.4
			c-8.9,0-13.4,4.9-13.4,14.2v22.2h-20.6V35.5c0-23.5,11.4-35.4,34-35.4h4c22.6,0,34,11.9,34,35.4v123.2h-21.2v-9.9
			c-5.8,5.8-13.7,11.6-25.9,11.6c-17,0-24.8-10.2-24.8-27.6V104z">
   </path>
   <path class="st13" d="M412.1,158.7h-21.2V32.3c0-7.8-3.6-11.3-10-11.3c-5.8,0-12,2.3-19.5,7.8v129.9h-21.2V1.8h21.2V12
			c6.2-6.1,14.2-12,25.9-12c10.9,0,18.1,4.7,22,12.8C416.9,6.1,425.8,0,438,0c16.4,0,24.8,10.5,24.8,27.6v131h-21.2V32.3
			c0-7.8-3.6-11.3-10-11.3c-5.8,0-12,2.3-19.5,7.8L412.1,158.7L412.1,158.7z">
   </path>
  </g>
  <polygon class="st14" points="0,70.2 0,91.4 54.4,144.7 54.4,115.2 18.8,80.5 54.4,45.1 54.4,16.2 	">
  </polygon>
  <polygon class="st14" points="489.7,45.1 525.3,80.5 489.7,115.3 489.7,144.7 544.1,91.4 544.1,70.2 489.7,16.2 	">
  </polygon>
 </g>
</svg>